<mxfile host="app.diagrams.net" agent="Mozilla/5.0 (X11; Ubuntu; Linux x86_64; rv:129.0) Gecko/20100101 Firefox/129.0" version="24.7.7">
  <diagram name="Page-1" id="5pRBvZ0qBhZt_LmNeUPa">
    <mxGraphModel dx="3897" dy="2189" grid="1" gridSize="10" guides="1" tooltips="1" connect="1" arrows="1" fold="1" page="1" pageScale="1" pageWidth="850" pageHeight="1100" math="0" shadow="0">
      <root>
        <mxCell id="0" />
        <mxCell id="1" parent="0" />
        <mxCell id="ny19inm62axyZ4T4E6Rk-3" value="" style="rounded=0;whiteSpace=wrap;html=1;fillColor=#dae8fc;strokeColor=#6c8ebf;fillStyle=hatch;dashed=1;dashPattern=12 12;sketch=1;curveFitting=1;jiggle=2;" vertex="1" parent="1">
          <mxGeometry x="491.25" y="190" width="298.75" height="340" as="geometry" />
        </mxCell>
        <mxCell id="ny19inm62axyZ4T4E6Rk-22" value="" style="rounded=0;whiteSpace=wrap;html=1;fillColor=#f5f5f5;fontColor=#333333;strokeColor=#666666;fillStyle=solid;dashed=1;dashPattern=8 8;" vertex="1" parent="1">
          <mxGeometry x="525" y="430" width="195" height="70" as="geometry" />
        </mxCell>
        <mxCell id="ny19inm62axyZ4T4E6Rk-86" value="" style="edgeStyle=orthogonalEdgeStyle;rounded=0;orthogonalLoop=1;jettySize=auto;html=1;" edge="1" parent="1" source="ny19inm62axyZ4T4E6Rk-1" target="ny19inm62axyZ4T4E6Rk-85">
          <mxGeometry relative="1" as="geometry" />
        </mxCell>
        <mxCell id="ny19inm62axyZ4T4E6Rk-1" value="" style="rounded=0;whiteSpace=wrap;html=1;fillStyle=hatch;fillColor=#FFD966;strokeColor=#b85450;gradientColor=none;sketch=1;curveFitting=1;jiggle=2;" vertex="1" parent="1">
          <mxGeometry x="40" y="200" width="200" height="210" as="geometry" />
        </mxCell>
        <mxCell id="ny19inm62axyZ4T4E6Rk-2" value="Microservice A" style="text;html=1;align=center;verticalAlign=middle;whiteSpace=wrap;rounded=0;" vertex="1" parent="1">
          <mxGeometry x="90" y="290" width="110" height="30" as="geometry" />
        </mxCell>
        <mxCell id="ny19inm62axyZ4T4E6Rk-4" value="Microservice B" style="text;html=1;align=center;verticalAlign=middle;whiteSpace=wrap;rounded=0;" vertex="1" parent="1">
          <mxGeometry x="525" y="200" width="110" height="30" as="geometry" />
        </mxCell>
        <mxCell id="ny19inm62axyZ4T4E6Rk-84" value="" style="edgeStyle=orthogonalEdgeStyle;rounded=0;orthogonalLoop=1;jettySize=auto;html=1;entryX=0;entryY=0.5;entryDx=0;entryDy=0;entryPerimeter=0;" edge="1" parent="1" source="ny19inm62axyZ4T4E6Rk-6" target="ny19inm62axyZ4T4E6Rk-82">
          <mxGeometry relative="1" as="geometry">
            <mxPoint x="1385" y="894.5" as="targetPoint" />
          </mxGeometry>
        </mxCell>
        <mxCell id="ny19inm62axyZ4T4E6Rk-6" value="" style="rounded=0;whiteSpace=wrap;html=1;dashed=1;sketch=1;curveFitting=1;jiggle=2;" vertex="1" parent="1">
          <mxGeometry x="1065" y="814.5" width="240" height="160" as="geometry" />
        </mxCell>
        <mxCell id="ny19inm62axyZ4T4E6Rk-7" value="Microservice n" style="text;html=1;align=center;verticalAlign=middle;whiteSpace=wrap;rounded=0;" vertex="1" parent="1">
          <mxGeometry x="1082.5" y="820.5" width="165" height="30" as="geometry" />
        </mxCell>
        <mxCell id="ny19inm62axyZ4T4E6Rk-10" value="API request" style="text;html=1;align=center;verticalAlign=middle;whiteSpace=wrap;rounded=0;" vertex="1" parent="1">
          <mxGeometry x="310" y="280" width="100" height="30" as="geometry" />
        </mxCell>
        <mxCell id="ny19inm62axyZ4T4E6Rk-14" value="" style="edgeStyle=orthogonalEdgeStyle;rounded=0;orthogonalLoop=1;jettySize=auto;html=1;entryX=0;entryY=0.5;entryDx=0;entryDy=0;entryPerimeter=0;exitX=1;exitY=0.25;exitDx=0;exitDy=0;" edge="1" parent="1" source="ny19inm62axyZ4T4E6Rk-3" target="ny19inm62axyZ4T4E6Rk-12">
          <mxGeometry relative="1" as="geometry">
            <mxPoint x="720" y="305" as="targetPoint" />
          </mxGeometry>
        </mxCell>
        <mxCell id="ny19inm62axyZ4T4E6Rk-18" value="" style="edgeStyle=orthogonalEdgeStyle;rounded=0;orthogonalLoop=1;jettySize=auto;html=1;exitX=0.5;exitY=1;exitDx=0;exitDy=0;entryX=0.5;entryY=0;entryDx=0;entryDy=0;" edge="1" parent="1" source="ny19inm62axyZ4T4E6Rk-20" target="ny19inm62axyZ4T4E6Rk-22">
          <mxGeometry relative="1" as="geometry">
            <mxPoint x="580" y="480" as="sourcePoint" />
          </mxGeometry>
        </mxCell>
        <mxCell id="ny19inm62axyZ4T4E6Rk-21" value="" style="edgeStyle=orthogonalEdgeStyle;rounded=0;orthogonalLoop=1;jettySize=auto;html=1;" edge="1" parent="1" source="ny19inm62axyZ4T4E6Rk-11" target="ny19inm62axyZ4T4E6Rk-20">
          <mxGeometry relative="1" as="geometry" />
        </mxCell>
        <mxCell id="ny19inm62axyZ4T4E6Rk-11" value="" style="rounded=0;whiteSpace=wrap;html=1;" vertex="1" parent="1">
          <mxGeometry x="520" y="275" width="200" height="60" as="geometry" />
        </mxCell>
        <mxCell id="ny19inm62axyZ4T4E6Rk-12" value="DB" style="shape=cylinder3;whiteSpace=wrap;html=1;boundedLbl=1;backgroundOutline=1;size=15;sketch=1;curveFitting=1;jiggle=2;" vertex="1" parent="1">
          <mxGeometry x="930" y="235" width="60" height="80" as="geometry" />
        </mxCell>
        <mxCell id="ny19inm62axyZ4T4E6Rk-9" value="" style="edgeStyle=orthogonalEdgeStyle;rounded=0;orthogonalLoop=1;jettySize=auto;html=1;entryX=0;entryY=0.5;entryDx=0;entryDy=0;" edge="1" parent="1" source="ny19inm62axyZ4T4E6Rk-1" target="ny19inm62axyZ4T4E6Rk-11">
          <mxGeometry relative="1" as="geometry">
            <mxPoint x="320" y="305" as="targetPoint" />
          </mxGeometry>
        </mxCell>
        <mxCell id="ny19inm62axyZ4T4E6Rk-64" value="" style="rounded=0;orthogonalLoop=1;jettySize=auto;html=1;entryX=0;entryY=0.5;entryDx=0;entryDy=0;exitX=1;exitY=0.5;exitDx=0;exitDy=0;" edge="1" parent="1" source="ny19inm62axyZ4T4E6Rk-17" target="ny19inm62axyZ4T4E6Rk-49">
          <mxGeometry relative="1" as="geometry">
            <mxPoint x="848.1300000000001" y="684" as="targetPoint" />
          </mxGeometry>
        </mxCell>
        <mxCell id="ny19inm62axyZ4T4E6Rk-80" value="" style="rounded=0;orthogonalLoop=1;jettySize=auto;html=1;entryX=0;entryY=0.5;entryDx=0;entryDy=0;exitX=1;exitY=0.5;exitDx=0;exitDy=0;" edge="1" parent="1" source="ny19inm62axyZ4T4E6Rk-17" target="ny19inm62axyZ4T4E6Rk-65">
          <mxGeometry relative="1" as="geometry">
            <mxPoint x="622.5050000000001" y="859" as="targetPoint" />
          </mxGeometry>
        </mxCell>
        <mxCell id="ny19inm62axyZ4T4E6Rk-17" value="" style="rounded=0;whiteSpace=wrap;html=1;sketch=1;curveFitting=1;jiggle=2;" vertex="1" parent="1">
          <mxGeometry x="476.88" y="589" width="291.25" height="190" as="geometry" />
        </mxCell>
        <mxCell id="ny19inm62axyZ4T4E6Rk-19" value="AWS SQS" style="text;html=1;align=center;verticalAlign=middle;whiteSpace=wrap;rounded=0;" vertex="1" parent="1">
          <mxGeometry x="565" y="600" width="110" height="30" as="geometry" />
        </mxCell>
        <mxCell id="ny19inm62axyZ4T4E6Rk-20" value="Publish Message" style="rounded=0;whiteSpace=wrap;html=1;" vertex="1" parent="1">
          <mxGeometry x="520" y="360" width="200" height="40" as="geometry" />
        </mxCell>
        <mxCell id="ny19inm62axyZ4T4E6Rk-23" value="" style="rounded=0;whiteSpace=wrap;html=1;fillColor=#f5f5f5;fontColor=#333333;strokeColor=#666666;fillStyle=solid;dashed=1;dashPattern=8 8;" vertex="1" parent="1">
          <mxGeometry x="1090" y="850.5" width="180" height="106" as="geometry" />
        </mxCell>
        <mxCell id="ny19inm62axyZ4T4E6Rk-24" value="" style="rounded=0;whiteSpace=wrap;html=1;" vertex="1" parent="1">
          <mxGeometry x="1110" y="875.5" width="120" height="40" as="geometry" />
        </mxCell>
        <mxCell id="ny19inm62axyZ4T4E6Rk-25" value="Message  Queue&amp;nbsp; handler" style="text;html=1;align=center;verticalAlign=middle;whiteSpace=wrap;rounded=0;" vertex="1" parent="1">
          <mxGeometry x="1097.5" y="850.5" width="150" height="30" as="geometry" />
        </mxCell>
        <mxCell id="ny19inm62axyZ4T4E6Rk-26" value="" style="rounded=0;whiteSpace=wrap;html=1;" vertex="1" parent="1">
          <mxGeometry x="1117" y="882.5" width="120" height="40" as="geometry" />
        </mxCell>
        <mxCell id="ny19inm62axyZ4T4E6Rk-27" value="" style="rounded=0;whiteSpace=wrap;html=1;" vertex="1" parent="1">
          <mxGeometry x="1125" y="892.5" width="120" height="40" as="geometry" />
        </mxCell>
        <mxCell id="ny19inm62axyZ4T4E6Rk-28" value="Queue Listners" style="rounded=0;whiteSpace=wrap;html=1;fillColor=#d5e8d4;strokeColor=#82b366;" vertex="1" parent="1">
          <mxGeometry x="1135" y="902.5" width="120" height="40" as="geometry" />
        </mxCell>
        <mxCell id="ny19inm62axyZ4T4E6Rk-16" value="" style="rounded=0;orthogonalLoop=1;jettySize=auto;html=1;exitX=1;exitY=0.5;exitDx=0;exitDy=0;entryX=0;entryY=0;entryDx=0;entryDy=0;" edge="1" parent="1" source="ny19inm62axyZ4T4E6Rk-17" target="ny19inm62axyZ4T4E6Rk-6">
          <mxGeometry relative="1" as="geometry">
            <mxPoint x="523" y="625" as="sourcePoint" />
            <mxPoint x="250" y="796" as="targetPoint" />
          </mxGeometry>
        </mxCell>
        <mxCell id="ny19inm62axyZ4T4E6Rk-31" value="" style="edgeStyle=orthogonalEdgeStyle;rounded=0;orthogonalLoop=1;jettySize=auto;html=1;" edge="1" parent="1" target="ny19inm62axyZ4T4E6Rk-17">
          <mxGeometry relative="1" as="geometry">
            <mxPoint x="623" y="500" as="sourcePoint" />
          </mxGeometry>
        </mxCell>
        <mxCell id="ny19inm62axyZ4T4E6Rk-29" value="Message Queue handler" style="text;html=1;align=center;verticalAlign=middle;whiteSpace=wrap;rounded=0;" vertex="1" parent="1">
          <mxGeometry x="544.5" y="450" width="156" height="30" as="geometry" />
        </mxCell>
        <mxCell id="ny19inm62axyZ4T4E6Rk-37" value="" style="rounded=0;whiteSpace=wrap;html=1;sketch=1;curveFitting=1;jiggle=2;" vertex="1" parent="1">
          <mxGeometry x="552.5" y="640" width="147.5" height="40" as="geometry" />
        </mxCell>
        <mxCell id="ny19inm62axyZ4T4E6Rk-38" value="" style="rounded=0;whiteSpace=wrap;html=1;sketch=1;curveFitting=1;jiggle=2;" vertex="1" parent="1">
          <mxGeometry x="562.5" y="654" width="147.5" height="40" as="geometry" />
        </mxCell>
        <mxCell id="ny19inm62axyZ4T4E6Rk-39" value="" style="rounded=0;whiteSpace=wrap;html=1;sketch=1;curveFitting=1;jiggle=2;" vertex="1" parent="1">
          <mxGeometry x="572.5" y="664" width="147.5" height="40" as="geometry" />
        </mxCell>
        <mxCell id="ny19inm62axyZ4T4E6Rk-40" value="" style="rounded=0;whiteSpace=wrap;html=1;sketch=1;curveFitting=1;jiggle=2;" vertex="1" parent="1">
          <mxGeometry x="582.5" y="674" width="147.5" height="40" as="geometry" />
        </mxCell>
        <mxCell id="ny19inm62axyZ4T4E6Rk-41" value="Queue n" style="rounded=0;whiteSpace=wrap;html=1;" vertex="1" parent="1">
          <mxGeometry x="592.5" y="684" width="147.5" height="40" as="geometry" />
        </mxCell>
        <mxCell id="ny19inm62axyZ4T4E6Rk-44" value="" style="rounded=0;whiteSpace=wrap;html=1;" vertex="1" parent="1">
          <mxGeometry x="530" y="260" width="200" height="60" as="geometry" />
        </mxCell>
        <mxCell id="ny19inm62axyZ4T4E6Rk-45" value="API" style="rounded=0;whiteSpace=wrap;html=1;" vertex="1" parent="1">
          <mxGeometry x="546.25" y="240" width="200" height="60" as="geometry" />
        </mxCell>
        <mxCell id="ny19inm62axyZ4T4E6Rk-48" value="Add message to the queue" style="text;html=1;align=center;verticalAlign=middle;whiteSpace=wrap;rounded=0;" vertex="1" parent="1">
          <mxGeometry x="640" y="540" width="153.75" height="30" as="geometry" />
        </mxCell>
        <mxCell id="ny19inm62axyZ4T4E6Rk-49" value="" style="rounded=0;whiteSpace=wrap;html=1;dashed=1;sketch=1;curveFitting=1;jiggle=2;" vertex="1" parent="1">
          <mxGeometry x="1075" y="290" width="240" height="282" as="geometry" />
        </mxCell>
        <mxCell id="ny19inm62axyZ4T4E6Rk-50" value="Microservice C" style="text;html=1;align=center;verticalAlign=middle;whiteSpace=wrap;rounded=0;" vertex="1" parent="1">
          <mxGeometry x="1092.5" y="296" width="165" height="30" as="geometry" />
        </mxCell>
        <mxCell id="ny19inm62axyZ4T4E6Rk-51" value="" style="rounded=0;whiteSpace=wrap;html=1;fillColor=#f5f5f5;fontColor=#333333;strokeColor=#666666;fillStyle=solid;dashed=1;dashPattern=8 8;" vertex="1" parent="1">
          <mxGeometry x="1100" y="326" width="180" height="106" as="geometry" />
        </mxCell>
        <mxCell id="ny19inm62axyZ4T4E6Rk-52" value="" style="rounded=0;whiteSpace=wrap;html=1;" vertex="1" parent="1">
          <mxGeometry x="1120" y="351" width="120" height="40" as="geometry" />
        </mxCell>
        <mxCell id="ny19inm62axyZ4T4E6Rk-53" value="Message  Queue&amp;nbsp; handler" style="text;html=1;align=center;verticalAlign=middle;whiteSpace=wrap;rounded=0;" vertex="1" parent="1">
          <mxGeometry x="1107.5" y="326" width="150" height="30" as="geometry" />
        </mxCell>
        <mxCell id="ny19inm62axyZ4T4E6Rk-54" value="" style="rounded=0;whiteSpace=wrap;html=1;" vertex="1" parent="1">
          <mxGeometry x="1127" y="358" width="120" height="40" as="geometry" />
        </mxCell>
        <mxCell id="ny19inm62axyZ4T4E6Rk-55" value="" style="rounded=0;whiteSpace=wrap;html=1;" vertex="1" parent="1">
          <mxGeometry x="1135" y="368" width="120" height="40" as="geometry" />
        </mxCell>
        <mxCell id="ny19inm62axyZ4T4E6Rk-56" value="Queue Listners" style="rounded=0;whiteSpace=wrap;html=1;fillColor=#d5e8d4;strokeColor=#82b366;" vertex="1" parent="1">
          <mxGeometry x="1145" y="378" width="120" height="40" as="geometry" />
        </mxCell>
        <mxCell id="ny19inm62axyZ4T4E6Rk-57" value="" style="rounded=0;whiteSpace=wrap;html=1;" vertex="1" parent="1">
          <mxGeometry x="1095" y="472" width="170" height="60" as="geometry" />
        </mxCell>
        <mxCell id="ny19inm62axyZ4T4E6Rk-58" value="" style="rounded=0;whiteSpace=wrap;html=1;" vertex="1" parent="1">
          <mxGeometry x="1105" y="482" width="180" height="60" as="geometry" />
        </mxCell>
        <mxCell id="ny19inm62axyZ4T4E6Rk-59" value="" style="rounded=0;orthogonalLoop=1;jettySize=auto;html=1;exitX=1;exitY=0.5;exitDx=0;exitDy=0;" edge="1" source="ny19inm62axyZ4T4E6Rk-60" target="ny19inm62axyZ4T4E6Rk-62" parent="1">
          <mxGeometry relative="1" as="geometry" />
        </mxCell>
        <mxCell id="ny19inm62axyZ4T4E6Rk-60" value="Services" style="rounded=0;whiteSpace=wrap;html=1;" vertex="1" parent="1">
          <mxGeometry x="1115" y="492" width="185" height="60" as="geometry" />
        </mxCell>
        <mxCell id="ny19inm62axyZ4T4E6Rk-61" value="" style="edgeStyle=orthogonalEdgeStyle;rounded=0;orthogonalLoop=1;jettySize=auto;html=1;exitX=0.5;exitY=1;exitDx=0;exitDy=0;entryX=0.561;entryY=0.019;entryDx=0;entryDy=0;entryPerimeter=0;" edge="1" source="ny19inm62axyZ4T4E6Rk-51" target="ny19inm62axyZ4T4E6Rk-57" parent="1">
          <mxGeometry relative="1" as="geometry">
            <mxPoint x="1200" y="442" as="sourcePoint" />
            <mxPoint x="1205" y="472" as="targetPoint" />
          </mxGeometry>
        </mxCell>
        <mxCell id="ny19inm62axyZ4T4E6Rk-62" value="DB" style="shape=cylinder3;whiteSpace=wrap;html=1;boundedLbl=1;backgroundOutline=1;size=15;sketch=1;curveFitting=1;jiggle=2;" vertex="1" parent="1">
          <mxGeometry x="1425" y="484.5" width="60" height="80" as="geometry" />
        </mxCell>
        <mxCell id="ny19inm62axyZ4T4E6Rk-65" value="" style="rounded=0;whiteSpace=wrap;html=1;dashed=1;sketch=1;curveFitting=1;jiggle=2;" vertex="1" parent="1">
          <mxGeometry x="1070" y="612.5" width="240" height="162" as="geometry" />
        </mxCell>
        <mxCell id="ny19inm62axyZ4T4E6Rk-66" value="Microservice D" style="text;html=1;align=center;verticalAlign=middle;whiteSpace=wrap;rounded=0;" vertex="1" parent="1">
          <mxGeometry x="1087.5" y="618.5" width="165" height="30" as="geometry" />
        </mxCell>
        <mxCell id="ny19inm62axyZ4T4E6Rk-67" value="" style="rounded=0;whiteSpace=wrap;html=1;fillColor=#f5f5f5;fontColor=#333333;strokeColor=#666666;fillStyle=solid;dashed=1;dashPattern=8 8;" vertex="1" parent="1">
          <mxGeometry x="1095" y="648.5" width="180" height="106" as="geometry" />
        </mxCell>
        <mxCell id="ny19inm62axyZ4T4E6Rk-68" value="" style="rounded=0;whiteSpace=wrap;html=1;" vertex="1" parent="1">
          <mxGeometry x="1115" y="673.5" width="120" height="40" as="geometry" />
        </mxCell>
        <mxCell id="ny19inm62axyZ4T4E6Rk-69" value="Message  Queue&amp;nbsp; handler" style="text;html=1;align=center;verticalAlign=middle;whiteSpace=wrap;rounded=0;" vertex="1" parent="1">
          <mxGeometry x="1102.5" y="648.5" width="150" height="30" as="geometry" />
        </mxCell>
        <mxCell id="ny19inm62axyZ4T4E6Rk-70" value="" style="rounded=0;whiteSpace=wrap;html=1;" vertex="1" parent="1">
          <mxGeometry x="1122" y="680.5" width="120" height="40" as="geometry" />
        </mxCell>
        <mxCell id="ny19inm62axyZ4T4E6Rk-71" value="" style="rounded=0;whiteSpace=wrap;html=1;" vertex="1" parent="1">
          <mxGeometry x="1130" y="690.5" width="120" height="40" as="geometry" />
        </mxCell>
        <mxCell id="ny19inm62axyZ4T4E6Rk-72" value="Queue Listners" style="rounded=0;whiteSpace=wrap;html=1;fillColor=#d5e8d4;strokeColor=#82b366;" vertex="1" parent="1">
          <mxGeometry x="1140" y="700.5" width="120" height="40" as="geometry" />
        </mxCell>
        <mxCell id="ny19inm62axyZ4T4E6Rk-75" value="" style="edgeStyle=orthogonalEdgeStyle;rounded=0;orthogonalLoop=1;jettySize=auto;html=1;" edge="1" target="ny19inm62axyZ4T4E6Rk-78" parent="1">
          <mxGeometry relative="1" as="geometry">
            <mxPoint x="1315" y="720.5" as="sourcePoint" />
          </mxGeometry>
        </mxCell>
        <mxCell id="ny19inm62axyZ4T4E6Rk-78" value="DB" style="shape=cylinder3;whiteSpace=wrap;html=1;boundedLbl=1;backgroundOutline=1;size=15;sketch=1;curveFitting=1;jiggle=2;" vertex="1" parent="1">
          <mxGeometry x="1425" y="680.5" width="60" height="80" as="geometry" />
        </mxCell>
        <mxCell id="ny19inm62axyZ4T4E6Rk-82" value="DB" style="shape=cylinder3;whiteSpace=wrap;html=1;boundedLbl=1;backgroundOutline=1;size=15;sketch=1;curveFitting=1;jiggle=2;" vertex="1" parent="1">
          <mxGeometry x="1425" y="854.5" width="60" height="80" as="geometry" />
        </mxCell>
        <mxCell id="ny19inm62axyZ4T4E6Rk-85" value="DB" style="shape=cylinder3;whiteSpace=wrap;html=1;boundedLbl=1;backgroundOutline=1;size=15;sketch=1;curveFitting=1;jiggle=2;" vertex="1" parent="1">
          <mxGeometry x="110" y="472" width="60" height="80" as="geometry" />
        </mxCell>
        <mxCell id="ny19inm62axyZ4T4E6Rk-87" value="" style="rounded=0;whiteSpace=wrap;html=1;fillColor=#dae8fc;strokeColor=#6c8ebf;fillStyle=hatch;dashed=1;dashPattern=12 12;sketch=1;curveFitting=1;jiggle=2;" vertex="1" parent="1">
          <mxGeometry x="491.25" y="1240" width="298.75" height="340" as="geometry" />
        </mxCell>
        <mxCell id="ny19inm62axyZ4T4E6Rk-88" value="" style="rounded=0;whiteSpace=wrap;html=1;fillColor=#f5f5f5;fontColor=#333333;strokeColor=#666666;fillStyle=solid;dashed=1;dashPattern=8 8;" vertex="1" parent="1">
          <mxGeometry x="525" y="1480" width="195" height="70" as="geometry" />
        </mxCell>
        <mxCell id="ny19inm62axyZ4T4E6Rk-89" value="" style="edgeStyle=orthogonalEdgeStyle;rounded=0;orthogonalLoop=1;jettySize=auto;html=1;" edge="1" source="ny19inm62axyZ4T4E6Rk-90" target="ny19inm62axyZ4T4E6Rk-150" parent="1">
          <mxGeometry relative="1" as="geometry" />
        </mxCell>
        <mxCell id="ny19inm62axyZ4T4E6Rk-90" value="" style="rounded=0;whiteSpace=wrap;html=1;fillStyle=hatch;fillColor=#dae8fc;strokeColor=#6c8ebf;sketch=1;curveFitting=1;jiggle=2;" vertex="1" parent="1">
          <mxGeometry x="40" y="1245" width="200" height="190" as="geometry" />
        </mxCell>
        <mxCell id="ny19inm62axyZ4T4E6Rk-91" value="Microservice A" style="text;html=1;align=center;verticalAlign=middle;whiteSpace=wrap;rounded=0;" vertex="1" parent="1">
          <mxGeometry x="85" y="1330" width="110" height="30" as="geometry" />
        </mxCell>
        <mxCell id="ny19inm62axyZ4T4E6Rk-92" value="Microservice B" style="text;html=1;align=center;verticalAlign=middle;whiteSpace=wrap;rounded=0;" vertex="1" parent="1">
          <mxGeometry x="591.25" y="1245" width="110" height="30" as="geometry" />
        </mxCell>
        <mxCell id="ny19inm62axyZ4T4E6Rk-96" value="API request" style="text;html=1;align=center;verticalAlign=middle;whiteSpace=wrap;rounded=0;" vertex="1" parent="1">
          <mxGeometry x="310" y="1335" width="100" height="30" as="geometry" />
        </mxCell>
        <mxCell id="ny19inm62axyZ4T4E6Rk-97" value="" style="edgeStyle=orthogonalEdgeStyle;rounded=0;orthogonalLoop=1;jettySize=auto;html=1;entryX=0;entryY=0.5;entryDx=0;entryDy=0;entryPerimeter=0;exitX=1;exitY=0.25;exitDx=0;exitDy=0;" edge="1" source="ny19inm62axyZ4T4E6Rk-87" target="ny19inm62axyZ4T4E6Rk-101" parent="1">
          <mxGeometry relative="1" as="geometry">
            <mxPoint x="720" y="1355" as="targetPoint" />
          </mxGeometry>
        </mxCell>
        <mxCell id="ny19inm62axyZ4T4E6Rk-98" value="" style="edgeStyle=orthogonalEdgeStyle;rounded=0;orthogonalLoop=1;jettySize=auto;html=1;exitX=0.5;exitY=1;exitDx=0;exitDy=0;entryX=0.5;entryY=0;entryDx=0;entryDy=0;" edge="1" source="ny19inm62axyZ4T4E6Rk-107" target="ny19inm62axyZ4T4E6Rk-88" parent="1">
          <mxGeometry relative="1" as="geometry">
            <mxPoint x="580" y="1530" as="sourcePoint" />
          </mxGeometry>
        </mxCell>
        <mxCell id="ny19inm62axyZ4T4E6Rk-99" value="" style="edgeStyle=orthogonalEdgeStyle;rounded=0;orthogonalLoop=1;jettySize=auto;html=1;" edge="1" source="ny19inm62axyZ4T4E6Rk-100" target="ny19inm62axyZ4T4E6Rk-107" parent="1">
          <mxGeometry relative="1" as="geometry" />
        </mxCell>
        <mxCell id="ny19inm62axyZ4T4E6Rk-100" value="" style="rounded=0;whiteSpace=wrap;html=1;" vertex="1" parent="1">
          <mxGeometry x="520" y="1325" width="200" height="60" as="geometry" />
        </mxCell>
        <mxCell id="ny19inm62axyZ4T4E6Rk-101" value="DB" style="shape=cylinder3;whiteSpace=wrap;html=1;boundedLbl=1;backgroundOutline=1;size=15;sketch=1;curveFitting=1;jiggle=2;fillStyle=dashed;" vertex="1" parent="1">
          <mxGeometry x="930" y="1285" width="60" height="80" as="geometry" />
        </mxCell>
        <mxCell id="ny19inm62axyZ4T4E6Rk-102" value="" style="edgeStyle=orthogonalEdgeStyle;rounded=0;orthogonalLoop=1;jettySize=auto;html=1;entryX=0;entryY=0.25;entryDx=0;entryDy=0;" edge="1" source="ny19inm62axyZ4T4E6Rk-90" target="ny19inm62axyZ4T4E6Rk-100" parent="1">
          <mxGeometry relative="1" as="geometry">
            <mxPoint x="320" y="1355" as="targetPoint" />
          </mxGeometry>
        </mxCell>
        <mxCell id="ny19inm62axyZ4T4E6Rk-105" value="" style="rounded=0;whiteSpace=wrap;html=1;sketch=1;curveFitting=1;jiggle=2;fillColor=#ffe6cc;strokeColor=#d79b00;" vertex="1" parent="1">
          <mxGeometry x="476.88" y="1639" width="313.12" height="311" as="geometry" />
        </mxCell>
        <mxCell id="ny19inm62axyZ4T4E6Rk-106" value="AWS SQS" style="text;html=1;align=center;verticalAlign=middle;whiteSpace=wrap;rounded=0;" vertex="1" parent="1">
          <mxGeometry x="565" y="1650" width="110" height="30" as="geometry" />
        </mxCell>
        <mxCell id="ny19inm62axyZ4T4E6Rk-107" value="Publish Message" style="rounded=0;whiteSpace=wrap;html=1;" vertex="1" parent="1">
          <mxGeometry x="520" y="1410" width="200" height="40" as="geometry" />
        </mxCell>
        <mxCell id="ny19inm62axyZ4T4E6Rk-115" value="" style="edgeStyle=orthogonalEdgeStyle;rounded=0;orthogonalLoop=1;jettySize=auto;html=1;" edge="1" target="ny19inm62axyZ4T4E6Rk-105" parent="1">
          <mxGeometry relative="1" as="geometry">
            <mxPoint x="623" y="1550" as="sourcePoint" />
          </mxGeometry>
        </mxCell>
        <mxCell id="ny19inm62axyZ4T4E6Rk-116" value="Message Queue handler" style="text;html=1;align=center;verticalAlign=middle;whiteSpace=wrap;rounded=0;" vertex="1" parent="1">
          <mxGeometry x="544.5" y="1500" width="156" height="30" as="geometry" />
        </mxCell>
        <mxCell id="ny19inm62axyZ4T4E6Rk-117" value="" style="rounded=0;whiteSpace=wrap;html=1;sketch=1;curveFitting=1;jiggle=2;" vertex="1" parent="1">
          <mxGeometry x="552.5" y="1690" width="147.5" height="40" as="geometry" />
        </mxCell>
        <mxCell id="ny19inm62axyZ4T4E6Rk-118" value="" style="rounded=0;whiteSpace=wrap;html=1;sketch=1;curveFitting=1;jiggle=2;" vertex="1" parent="1">
          <mxGeometry x="562.5" y="1704" width="147.5" height="40" as="geometry" />
        </mxCell>
        <mxCell id="ny19inm62axyZ4T4E6Rk-119" value="" style="rounded=0;whiteSpace=wrap;html=1;sketch=1;curveFitting=1;jiggle=2;" vertex="1" parent="1">
          <mxGeometry x="572.5" y="1714" width="147.5" height="40" as="geometry" />
        </mxCell>
        <mxCell id="ny19inm62axyZ4T4E6Rk-120" value="" style="rounded=0;whiteSpace=wrap;html=1;sketch=1;curveFitting=1;jiggle=2;" vertex="1" parent="1">
          <mxGeometry x="582.5" y="1724" width="147.5" height="40" as="geometry" />
        </mxCell>
        <mxCell id="ny19inm62axyZ4T4E6Rk-121" value="Queue n" style="rounded=0;whiteSpace=wrap;html=1;" vertex="1" parent="1">
          <mxGeometry x="592.5" y="1734" width="147.5" height="40" as="geometry" />
        </mxCell>
        <mxCell id="ny19inm62axyZ4T4E6Rk-122" value="" style="rounded=0;whiteSpace=wrap;html=1;" vertex="1" parent="1">
          <mxGeometry x="530" y="1310" width="200" height="60" as="geometry" />
        </mxCell>
        <mxCell id="ny19inm62axyZ4T4E6Rk-123" value="API" style="rounded=0;whiteSpace=wrap;html=1;" vertex="1" parent="1">
          <mxGeometry x="546.25" y="1290" width="200" height="60" as="geometry" />
        </mxCell>
        <mxCell id="ny19inm62axyZ4T4E6Rk-124" value="Response from consumer " style="text;html=1;align=center;verticalAlign=middle;whiteSpace=wrap;rounded=0;" vertex="1" parent="1">
          <mxGeometry x="530" y="1580" width="63.75" height="50" as="geometry" />
        </mxCell>
        <mxCell id="ny19inm62axyZ4T4E6Rk-125" value="" style="rounded=0;whiteSpace=wrap;html=1;dashed=1;sketch=1;curveFitting=1;jiggle=2;fillColor=#e1d5e7;strokeColor=#9673a6;" vertex="1" parent="1">
          <mxGeometry x="1015" y="1590" width="240" height="282" as="geometry" />
        </mxCell>
        <mxCell id="ny19inm62axyZ4T4E6Rk-126" value="Microservice C (a consumer)" style="text;html=1;align=center;verticalAlign=middle;whiteSpace=wrap;rounded=0;" vertex="1" parent="1">
          <mxGeometry x="1060" y="1596" width="165" height="30" as="geometry" />
        </mxCell>
        <mxCell id="ny19inm62axyZ4T4E6Rk-127" value="" style="rounded=0;whiteSpace=wrap;html=1;fillColor=#f5f5f5;fontColor=#333333;strokeColor=#666666;fillStyle=solid;dashed=1;dashPattern=8 8;" vertex="1" parent="1">
          <mxGeometry x="1040" y="1626" width="180" height="106" as="geometry" />
        </mxCell>
        <mxCell id="ny19inm62axyZ4T4E6Rk-128" value="" style="rounded=0;whiteSpace=wrap;html=1;" vertex="1" parent="1">
          <mxGeometry x="1060" y="1651" width="120" height="40" as="geometry" />
        </mxCell>
        <mxCell id="ny19inm62axyZ4T4E6Rk-129" value="Message  Queue&amp;nbsp; handler" style="text;html=1;align=center;verticalAlign=middle;whiteSpace=wrap;rounded=0;" vertex="1" parent="1">
          <mxGeometry x="1047.5" y="1626" width="150" height="30" as="geometry" />
        </mxCell>
        <mxCell id="ny19inm62axyZ4T4E6Rk-130" value="" style="rounded=0;whiteSpace=wrap;html=1;" vertex="1" parent="1">
          <mxGeometry x="1067" y="1658" width="120" height="40" as="geometry" />
        </mxCell>
        <mxCell id="ny19inm62axyZ4T4E6Rk-131" value="" style="rounded=0;whiteSpace=wrap;html=1;" vertex="1" parent="1">
          <mxGeometry x="1075" y="1668" width="120" height="40" as="geometry" />
        </mxCell>
        <mxCell id="ny19inm62axyZ4T4E6Rk-132" value="Queue Listners" style="rounded=0;whiteSpace=wrap;html=1;fillColor=#d5e8d4;strokeColor=#82b366;" vertex="1" parent="1">
          <mxGeometry x="1085" y="1678" width="120" height="40" as="geometry" />
        </mxCell>
        <mxCell id="ny19inm62axyZ4T4E6Rk-133" value="" style="rounded=0;whiteSpace=wrap;html=1;" vertex="1" parent="1">
          <mxGeometry x="1035" y="1772" width="170" height="60" as="geometry" />
        </mxCell>
        <mxCell id="ny19inm62axyZ4T4E6Rk-134" value="" style="rounded=0;whiteSpace=wrap;html=1;" vertex="1" parent="1">
          <mxGeometry x="1045" y="1782" width="180" height="60" as="geometry" />
        </mxCell>
        <mxCell id="ny19inm62axyZ4T4E6Rk-135" value="" style="rounded=0;orthogonalLoop=1;jettySize=auto;html=1;exitX=1;exitY=0.5;exitDx=0;exitDy=0;" edge="1" source="ny19inm62axyZ4T4E6Rk-136" target="ny19inm62axyZ4T4E6Rk-138" parent="1">
          <mxGeometry relative="1" as="geometry" />
        </mxCell>
        <mxCell id="ny19inm62axyZ4T4E6Rk-136" value="Services" style="rounded=0;whiteSpace=wrap;html=1;" vertex="1" parent="1">
          <mxGeometry x="1055" y="1792" width="185" height="60" as="geometry" />
        </mxCell>
        <mxCell id="ny19inm62axyZ4T4E6Rk-137" value="" style="edgeStyle=orthogonalEdgeStyle;rounded=0;orthogonalLoop=1;jettySize=auto;html=1;exitX=0.5;exitY=1;exitDx=0;exitDy=0;entryX=0.561;entryY=0.019;entryDx=0;entryDy=0;entryPerimeter=0;" edge="1" source="ny19inm62axyZ4T4E6Rk-127" target="ny19inm62axyZ4T4E6Rk-133" parent="1">
          <mxGeometry relative="1" as="geometry">
            <mxPoint x="1140" y="1742" as="sourcePoint" />
            <mxPoint x="1145" y="1772" as="targetPoint" />
          </mxGeometry>
        </mxCell>
        <mxCell id="ny19inm62axyZ4T4E6Rk-138" value="DB" style="shape=cylinder3;whiteSpace=wrap;html=1;boundedLbl=1;backgroundOutline=1;size=15;sketch=1;curveFitting=1;jiggle=2;fillStyle=dashed;" vertex="1" parent="1">
          <mxGeometry x="1365" y="1784.5" width="60" height="80" as="geometry" />
        </mxCell>
        <mxCell id="ny19inm62axyZ4T4E6Rk-150" value="DB" style="shape=cylinder3;whiteSpace=wrap;html=1;boundedLbl=1;backgroundOutline=1;size=15;sketch=1;curveFitting=1;jiggle=2;" vertex="1" parent="1">
          <mxGeometry x="110" y="1522" width="60" height="80" as="geometry" />
        </mxCell>
        <mxCell id="ny19inm62axyZ4T4E6Rk-153" value="&lt;div align=&quot;left&quot;&gt;&lt;font style=&quot;font-size: 39px;&quot;&gt;SQS&lt;font style=&quot;font-size: 39px;&quot;&gt; Request Response Pattern&lt;/font&gt;&lt;/font&gt;&lt;/div&gt;" style="text;html=1;align=left;verticalAlign=middle;whiteSpace=wrap;rounded=0;" vertex="1" parent="1">
          <mxGeometry x="40" y="1140" width="860" height="30" as="geometry" />
        </mxCell>
        <mxCell id="ny19inm62axyZ4T4E6Rk-103" value="" style="rounded=0;orthogonalLoop=1;jettySize=auto;html=1;entryX=0.001;entryY=0.552;entryDx=0;entryDy=0;exitX=0.996;exitY=0.148;exitDx=0;exitDy=0;entryPerimeter=0;exitPerimeter=0;" edge="1" source="ny19inm62axyZ4T4E6Rk-105" target="ny19inm62axyZ4T4E6Rk-127" parent="1">
          <mxGeometry relative="1" as="geometry">
            <mxPoint x="848.1300000000001" y="1734" as="targetPoint" />
          </mxGeometry>
        </mxCell>
        <mxCell id="ny19inm62axyZ4T4E6Rk-155" value="" style="edgeStyle=orthogonalEdgeStyle;rounded=0;orthogonalLoop=1;jettySize=auto;html=1;exitX=0;exitY=0.75;exitDx=0;exitDy=0;entryX=1.005;entryY=0.213;entryDx=0;entryDy=0;entryPerimeter=0;" edge="1" parent="1" source="ny19inm62axyZ4T4E6Rk-127" target="ny19inm62axyZ4T4E6Rk-105">
          <mxGeometry relative="1" as="geometry">
            <mxPoint x="780" y="1710" as="targetPoint" />
            <Array as="points" />
          </mxGeometry>
        </mxCell>
        <mxCell id="ny19inm62axyZ4T4E6Rk-156" value="" style="edgeStyle=orthogonalEdgeStyle;rounded=0;orthogonalLoop=1;jettySize=auto;html=1;entryX=1;entryY=0.667;entryDx=0;entryDy=0;entryPerimeter=0;exitX=0;exitY=0.75;exitDx=0;exitDy=0;" edge="1" parent="1" source="ny19inm62axyZ4T4E6Rk-100" target="ny19inm62axyZ4T4E6Rk-90">
          <mxGeometry relative="1" as="geometry">
            <mxPoint x="250" y="1365" as="sourcePoint" />
            <mxPoint x="530" y="1365" as="targetPoint" />
            <Array as="points">
              <mxPoint x="520" y="1372" />
              <mxPoint x="250" y="1372" />
            </Array>
          </mxGeometry>
        </mxCell>
        <mxCell id="ny19inm62axyZ4T4E6Rk-157" value="API response" style="text;html=1;align=center;verticalAlign=middle;whiteSpace=wrap;rounded=0;" vertex="1" parent="1">
          <mxGeometry x="310" y="1370" width="100" height="30" as="geometry" />
        </mxCell>
        <mxCell id="ny19inm62axyZ4T4E6Rk-158" value="" style="edgeStyle=orthogonalEdgeStyle;rounded=0;orthogonalLoop=1;jettySize=auto;html=1;entryX=0.37;entryY=0.987;entryDx=0;entryDy=0;entryPerimeter=0;exitX=0.41;exitY=-0.009;exitDx=0;exitDy=0;exitPerimeter=0;" edge="1" parent="1" source="ny19inm62axyZ4T4E6Rk-105" target="ny19inm62axyZ4T4E6Rk-88">
          <mxGeometry relative="1" as="geometry">
            <mxPoint x="633" y="1560" as="sourcePoint" />
            <mxPoint x="633" y="1649" as="targetPoint" />
          </mxGeometry>
        </mxCell>
        <mxCell id="ny19inm62axyZ4T4E6Rk-160" value="" style="points=[[0.145,0.145,0],[0.5,0,0],[0.855,0.145,0],[1,0.5,0],[0.855,0.855,0],[0.5,1,0],[0.145,0.855,0],[0,0.5,0]];shape=mxgraph.bpmn.event;html=1;verticalLabelPosition=bottom;labelBackgroundColor=#ffffff;verticalAlign=top;align=center;perimeter=ellipsePerimeter;outlineConnect=0;aspect=fixed;outline=eventNonint;symbol=timer;" vertex="1" parent="1">
          <mxGeometry x="675" y="1412" width="35" height="35" as="geometry" />
        </mxCell>
        <mxCell id="ny19inm62axyZ4T4E6Rk-161" value="" style="endArrow=classic;html=1;rounded=0;entryX=1;entryY=0.5;entryDx=0;entryDy=0;entryPerimeter=0;" edge="1" parent="1" target="ny19inm62axyZ4T4E6Rk-160">
          <mxGeometry width="50" height="50" relative="1" as="geometry">
            <mxPoint x="870" y="1430" as="sourcePoint" />
            <mxPoint x="690" y="1470" as="targetPoint" />
          </mxGeometry>
        </mxCell>
        <mxCell id="ny19inm62axyZ4T4E6Rk-162" value="&lt;span style=&quot;color: rgb(22, 25, 31); font-family: &amp;quot;Amazon Ember&amp;quot;, &amp;quot;Helvetica Neue&amp;quot;, Roboto, Arial, sans-serif; font-size: 14px; font-style: normal; font-variant-ligatures: normal; font-variant-caps: normal; font-weight: 400; letter-spacing: normal; orphans: 2; text-align: start; text-indent: 0px; text-transform: none; widows: 2; word-spacing: 0px; -webkit-text-stroke-width: 0px; white-space: normal; background-color: rgb(255, 255, 255); text-decoration-thickness: initial; text-decoration-style: initial; text-decoration-color: initial; display: inline !important; float: none;&quot;&gt;Timeout for request&lt;br&gt;&lt;/span&gt;" style="text;html=1;align=center;verticalAlign=middle;whiteSpace=wrap;rounded=0;" vertex="1" parent="1">
          <mxGeometry x="833.13" y="1415" width="110" height="30" as="geometry" />
        </mxCell>
        <mxCell id="ny19inm62axyZ4T4E6Rk-163" value="Add message to the queue" style="text;html=1;align=center;verticalAlign=middle;whiteSpace=wrap;rounded=0;" vertex="1" parent="1">
          <mxGeometry x="634.38" y="1580" width="63.75" height="50" as="geometry" />
        </mxCell>
        <mxCell id="ny19inm62axyZ4T4E6Rk-165" value="Poll available message by consumer" style="text;html=1;align=center;verticalAlign=middle;whiteSpace=wrap;rounded=0;" vertex="1" parent="1">
          <mxGeometry x="810" y="1658" width="156.25" height="30" as="geometry" />
        </mxCell>
        <mxCell id="ny19inm62axyZ4T4E6Rk-167" value="" style="points=[[0.145,0.145,0],[0.5,0,0],[0.855,0.145,0],[1,0.5,0],[0.855,0.855,0],[0.5,1,0],[0.145,0.855,0],[0,0.5,0]];shape=mxgraph.bpmn.event;html=1;verticalLabelPosition=bottom;labelBackgroundColor=#ffffff;verticalAlign=top;align=center;perimeter=ellipsePerimeter;outlineConnect=0;aspect=fixed;outline=eventNonint;symbol=timer;" vertex="1" parent="1">
          <mxGeometry x="960" y="1650" width="30" height="30" as="geometry" />
        </mxCell>
        <mxCell id="ny19inm62axyZ4T4E6Rk-168" value="Return the response after processed" style="text;html=1;align=center;verticalAlign=middle;whiteSpace=wrap;rounded=0;" vertex="1" parent="1">
          <mxGeometry x="820" y="1709" width="156.25" height="30" as="geometry" />
        </mxCell>
        <mxCell id="ny19inm62axyZ4T4E6Rk-169" value="Queue nDLQ " style="rounded=0;whiteSpace=wrap;html=1;" vertex="1" parent="1">
          <mxGeometry x="567.5" y="1814.5" width="147.5" height="40" as="geometry" />
        </mxCell>
        <mxCell id="ny19inm62axyZ4T4E6Rk-170" value="Queue nDLQ " style="rounded=0;whiteSpace=wrap;html=1;" vertex="1" parent="1">
          <mxGeometry x="577.5" y="1824.5" width="147.5" height="40" as="geometry" />
        </mxCell>
        <mxCell id="ny19inm62axyZ4T4E6Rk-171" value="Queue nDLQ " style="rounded=0;whiteSpace=wrap;html=1;" vertex="1" parent="1">
          <mxGeometry x="592.5" y="1832" width="147.5" height="40" as="geometry" />
        </mxCell>
        <mxCell id="ny19inm62axyZ4T4E6Rk-172" value="" style="edgeStyle=orthogonalEdgeStyle;rounded=0;orthogonalLoop=1;jettySize=auto;html=1;entryX=0.5;entryY=0;entryDx=0;entryDy=0;" edge="1" parent="1" source="ny19inm62axyZ4T4E6Rk-121" target="ny19inm62axyZ4T4E6Rk-171">
          <mxGeometry relative="1" as="geometry" />
        </mxCell>
        <mxCell id="ny19inm62axyZ4T4E6Rk-175" value="DLQ stands for Dead Letter Queue. If a message keep getting error during processing, it will move t this queue" style="text;html=1;align=center;verticalAlign=middle;whiteSpace=wrap;rounded=0;" vertex="1" parent="1">
          <mxGeometry x="546.25" y="1880" width="215.01" height="40" as="geometry" />
        </mxCell>
      </root>
    </mxGraphModel>
  </diagram>
</mxfile>
